<svg width="16" height="15" viewBox="0 0 16 15" fill="none" xmlns="http://www.w3.org/2000/svg">
<path d="M4.94188 10.1844C2.84391 8.11595 1.55683 5.92126 0.857653 4.4805C0.384292 3.50505 0.626651 2.36499 1.41557 1.62124C2.26459 0.820824 3.31993 -0.059908 3.79461 0.00320429C5.21851 0.192523 7.11774 2.59948 6.85117 3.40547C6.58459 4.21146 5.50943 5.28903 5.50943 5.28903C5.50943 5.28903 6.11719 6.41212 7.41677 7.70399C8.71635 8.99585 9.84547 9.56416 9.84547 9.56416C9.84547 9.56416 10.9206 8.48658 11.7292 8.21499C12.5378 7.94341 15.1768 10.1478 15.1768 11.2254C15.1768 11.6733 14.4491 12.676 13.7506 13.5355C13.0073 14.4499 11.7671 14.7584 10.7086 14.2403C9.21326 13.5084 6.99607 12.2098 4.94188 10.1844Z" fill="#505D6B"/>
</svg>
